<mxfile host="app.diagrams.net" modified="2023-02-27T03:33:41.077Z" agent="5.0 (Windows NT 10.0; Win64; x64) AppleWebKit/537.36 (KHTML, like Gecko) Chrome/110.0.0.0 Safari/537.36 Edg/110.0.1587.56" etag="fnwFjO8r0952e3i54m3k" version="20.8.23" type="github">
  <diagram name="第 1 页" id="BZCovWN9glv16d7GzviG">
    <mxGraphModel dx="1411" dy="854" grid="1" gridSize="10" guides="1" tooltips="1" connect="1" arrows="1" fold="1" page="1" pageScale="1" pageWidth="2339" pageHeight="3300" math="0" shadow="0">
      <root>
        <mxCell id="0" />
        <mxCell id="1" parent="0" />
        <mxCell id="dSWuc1HZ-MoAOcplKWuS-1" value="" style="rounded=0;whiteSpace=wrap;html=1;" vertex="1" parent="1">
          <mxGeometry x="490" y="200" width="600" height="920" as="geometry" />
        </mxCell>
        <mxCell id="dSWuc1HZ-MoAOcplKWuS-2" value="" style="rounded=0;whiteSpace=wrap;html=1;" vertex="1" parent="1">
          <mxGeometry x="490" y="200" width="90" height="920" as="geometry" />
        </mxCell>
        <mxCell id="dSWuc1HZ-MoAOcplKWuS-3" value="Boot entry" style="rounded=0;whiteSpace=wrap;html=1;fontSize=17;" vertex="1" parent="1">
          <mxGeometry x="580" y="200" width="170" height="60" as="geometry" />
        </mxCell>
        <mxCell id="dSWuc1HZ-MoAOcplKWuS-4" value="Cold boot" style="rounded=0;whiteSpace=wrap;html=1;fontSize=17;" vertex="1" parent="1">
          <mxGeometry x="750" y="200" width="170" height="60" as="geometry" />
        </mxCell>
        <mxCell id="dSWuc1HZ-MoAOcplKWuS-5" value="Warm boot" style="rounded=0;whiteSpace=wrap;html=1;fontSize=17;" vertex="1" parent="1">
          <mxGeometry x="920" y="200" width="170" height="60" as="geometry" />
        </mxCell>
      </root>
    </mxGraphModel>
  </diagram>
</mxfile>
